<svg xmlns="http://www.w3.org/2000/svg" viewBox="0 0 311.1099853515625 54.20000076293945" data-asc="0.82373046875" width="311.1099853515625" height="54.20000076293945"><defs/><g fill="#53dc50"><g transform="translate(0, 0)"><path d="M34.08 23.56Q34.08 26.12 33.40 28.43Q32.71 30.74 31.48 32.69Q30.25 34.64 28.54 36.22Q26.83 37.79 24.77 38.89Q22.71 39.99 20.35 40.59Q17.99 41.19 15.50 41.19L0 41.19L0 6.03L15.50 6.03Q17.99 6.03 20.34 6.62Q22.68 7.20 24.74 8.29Q26.81 9.38 28.53 10.94Q30.25 12.50 31.48 14.44Q32.71 16.38 33.40 18.69Q34.08 21.00 34.08 23.56M24.24 23.56Q24.24 20.70 23.55 18.13Q22.85 15.55 21.39 13.60Q19.92 11.65 17.66 10.50Q15.41 9.35 12.26 9.35L9.69 9.35L9.69 37.77L12.26 37.77Q15.36 37.77 17.61 36.61Q19.87 35.45 21.35 33.48Q22.83 31.52 23.54 28.96Q24.24 26.39 24.24 23.56ZM69.04 27.03Q69.04 29.22 68.46 31.15Q67.87 33.08 66.83 34.72Q65.80 36.35 64.33 37.66Q62.87 38.96 61.12 39.87Q59.38 40.77 57.39 41.26Q55.40 41.75 53.30 41.75Q51.20 41.75 49.22 41.26Q47.24 40.77 45.50 39.87Q43.75 38.96 42.29 37.66Q40.82 36.35 39.78 34.72Q38.75 33.08 38.16 31.14Q37.57 29.20 37.57 27.03Q37.57 24.85 38.16 22.91Q38.75 20.97 39.78 19.34Q40.82 17.70 42.29 16.39Q43.75 15.09 45.50 14.18Q47.24 13.28 49.22 12.79Q51.20 12.30 53.30 12.30Q55.40 12.30 57.39 12.79Q59.38 13.28 61.12 14.18Q62.87 15.09 64.33 16.39Q65.80 17.70 66.83 19.34Q67.87 20.97 68.46 22.91Q69.04 24.85 69.04 27.03M60.64 27.03Q60.64 25.85 60.51 24.55Q60.38 23.24 60.06 21.98Q59.74 20.73 59.19 19.57Q58.64 18.41 57.84 17.54Q57.03 16.67 55.91 16.15Q54.79 15.63 53.30 15.63Q51.88 15.63 50.78 16.16Q49.68 16.70 48.86 17.59Q48.05 18.48 47.50 19.65Q46.95 20.83 46.61 22.08Q46.26 23.34 46.12 24.62Q45.97 25.90 45.97 27.03Q45.97 28.15 46.12 29.43Q46.26 30.71 46.61 31.98Q46.95 33.25 47.50 34.41Q48.05 35.57 48.86 36.46Q49.68 37.35 50.78 37.89Q51.88 38.43 53.30 38.43Q54.76 38.43 55.88 37.90Q57.01 37.38 57.82 36.50Q58.64 35.62 59.18 34.47Q59.72 33.33 60.05 32.06Q60.38 30.79 60.51 29.49Q60.64 28.20 60.64 27.03ZM82.50 41.19L74.24 41.19L74.24 0L77.42 0L82.50 8.57L82.50 41.19ZM119.36 27.03Q119.36 30.10 118.43 32.79Q117.50 35.47 115.75 37.46Q113.99 39.45 111.45 40.60Q108.91 41.75 105.69 41.75Q103.22 41.75 101.16 40.78Q99.10 39.82 97.63 37.82L97.63 54.20L89.38 54.20L89.38 12.99L92.55 12.99L96.22 19.12Q96.75 17.58 97.69 16.32Q98.63 15.06 99.87 14.17Q101.10 13.28 102.58 12.79Q104.05 12.30 105.69 12.30Q108.91 12.30 111.45 13.45Q113.99 14.60 115.75 16.59Q117.50 18.58 118.43 21.26Q119.36 23.95 119.36 27.03M110.99 27.03Q110.99 25.95 110.88 24.74Q110.77 23.54 110.50 22.34Q110.23 21.14 109.75 20.04Q109.28 18.95 108.54 18.10Q107.81 17.26 106.77 16.76Q105.74 16.26 104.37 16.26Q102.95 16.26 101.92 16.75Q100.88 17.24 100.13 18.08Q99.39 18.92 98.91 20.01Q98.44 21.09 98.17 22.29Q97.90 23.49 97.79 24.71Q97.68 25.93 97.68 27.03Q97.68 28.00 97.83 29.19Q97.97 30.37 98.29 31.57Q98.61 32.76 99.12 33.89Q99.63 35.01 100.38 35.89Q101.12 36.77 102.11 37.29Q103.10 37.82 104.37 37.82Q105.76 37.82 106.79 37.32Q107.81 36.82 108.54 35.97Q109.28 35.13 109.75 34.03Q110.23 32.93 110.50 31.74Q110.77 30.54 110.88 29.32Q110.99 28.10 110.99 27.03ZM153.49 25.02Q153.49 27.88 152.80 30.98Q152.10 34.08 150.85 37.06Q149.61 40.04 147.88 42.66Q146.14 45.29 144.07 47.19L140.97 45.51Q141.63 44.29 142.21 42.77Q142.80 41.26 143.27 39.56Q143.75 37.87 144.13 36.06Q144.51 34.25 144.76 32.48Q145.02 30.71 145.15 29.04Q145.29 27.37 145.29 25.93Q145.29 24.98 145.21 23.89Q145.14 22.80 144.91 21.72Q144.68 20.63 144.29 19.63Q143.90 18.63 143.25 17.87Q142.60 17.11 141.69 16.65Q140.77 16.19 139.53 16.19Q138.31 16.19 137.35 16.74Q136.40 17.29 135.67 18.18Q134.94 19.07 134.41 20.21Q133.89 21.36 133.56 22.57Q133.23 23.78 133.08 24.95Q132.93 26.12 132.93 27.05L132.93 41.19L124.66 41.19L124.66 2.61L132.91 2.61L132.91 17.14Q134.50 14.82 136.80 13.56Q139.11 12.30 141.92 12.30Q144.85 12.30 147.02 13.26Q149.19 14.21 150.63 15.91Q152.08 17.60 152.78 19.93Q153.49 22.27 153.49 25.02ZM167.60 6.18Q167.60 7.10 167.25 7.93Q166.89 8.76 166.28 9.38Q165.67 9.99 164.84 10.34Q164.01 10.69 163.09 10.69Q162.16 10.69 161.34 10.34Q160.52 9.99 159.91 9.38Q159.30 8.76 158.95 7.93Q158.59 7.10 158.59 6.18Q158.59 5.25 158.95 4.43Q159.30 3.61 159.91 3.00Q160.52 2.39 161.34 2.04Q162.16 1.68 163.09 1.68Q164.01 1.68 164.84 2.04Q165.67 2.39 166.28 3.00Q166.89 3.61 167.25 4.43Q167.60 5.25 167.60 6.18M167.24 41.19L158.96 41.19L158.96 13.01L167.24 13.01L167.24 41.19ZM179.17 41.19L174.68 41.19L174.68 6.03L180.98 6.03L202.34 30.18L202.34 6.03L206.81 6.03L206.81 41.19L200.51 41.19L179.17 17.07L179.17 41.19ZM243.48 27.03Q243.48 29.22 242.90 31.15Q242.31 33.08 241.27 34.72Q240.23 36.35 238.77 37.66Q237.30 38.96 235.56 39.87Q233.81 40.77 231.82 41.26Q229.83 41.75 227.73 41.75Q225.63 41.75 223.66 41.26Q221.68 40.77 219.93 39.87Q218.19 38.96 216.72 37.66Q215.26 36.35 214.22 34.72Q213.18 33.08 212.60 31.14Q212.01 29.20 212.01 27.03Q212.01 24.85 212.60 22.91Q213.18 20.97 214.22 19.34Q215.26 17.70 216.72 16.39Q218.19 15.09 219.93 14.18Q221.68 13.28 223.66 12.79Q225.63 12.30 227.73 12.30Q229.83 12.30 231.82 12.79Q233.81 13.28 235.56 14.18Q237.30 15.09 238.77 16.39Q240.23 17.70 241.27 19.34Q242.31 20.97 242.90 22.91Q243.48 24.85 243.48 27.03M235.08 27.03Q235.08 25.85 234.95 24.55Q234.81 23.24 234.50 21.98Q234.18 20.73 233.63 19.57Q233.08 18.41 232.28 17.54Q231.47 16.67 230.35 16.15Q229.22 15.63 227.73 15.63Q226.32 15.63 225.22 16.16Q224.12 16.70 223.30 17.59Q222.49 18.48 221.94 19.65Q221.39 20.83 221.04 22.08Q220.70 23.34 220.56 24.62Q220.41 25.90 220.41 27.03Q220.41 28.15 220.56 29.43Q220.70 30.71 221.04 31.98Q221.39 33.25 221.94 34.41Q222.49 35.57 223.30 36.46Q224.12 37.35 225.22 37.89Q226.32 38.43 227.73 38.43Q229.20 38.43 230.32 37.90Q231.45 37.38 232.26 36.50Q233.08 35.62 233.62 34.47Q234.16 33.33 234.48 32.06Q234.81 30.79 234.95 29.49Q235.08 28.20 235.08 27.03ZM277.10 41.19L273.93 41.19L270.26 35.06Q269.73 36.60 268.79 37.84Q267.85 39.09 266.61 39.98Q265.38 40.87 263.90 41.36Q262.43 41.85 260.79 41.85Q257.57 41.85 255.03 40.70Q252.49 39.55 250.73 37.56Q248.97 35.57 248.05 32.89Q247.12 30.20 247.12 27.12Q247.12 24.05 248.05 21.36Q248.97 18.68 250.73 16.70Q252.49 14.72 255.03 13.57Q257.57 12.43 260.79 12.43Q263.26 12.43 265.32 13.38Q267.38 14.33 268.85 16.36L268.85 2.61L277.10 2.61L277.10 41.19M268.80 27.12Q268.80 26.15 268.65 24.98Q268.51 23.80 268.19 22.61Q267.87 21.41 267.36 20.29Q266.85 19.17 266.10 18.29Q265.36 17.41 264.37 16.88Q263.38 16.36 262.11 16.36Q260.72 16.36 259.69 16.86Q258.67 17.36 257.93 18.20Q257.20 19.04 256.73 20.14Q256.25 21.24 255.98 22.44Q255.71 23.63 255.60 24.84Q255.49 26.05 255.49 27.12Q255.49 28.20 255.60 29.41Q255.71 30.62 255.98 31.81Q256.25 33.01 256.73 34.12Q257.20 35.23 257.93 36.07Q258.67 36.91 259.69 37.41Q260.72 37.92 262.11 37.92Q263.50 37.92 264.55 37.43Q265.60 36.94 266.35 36.10Q267.09 35.25 267.57 34.17Q268.04 33.08 268.31 31.87Q268.58 30.66 268.69 29.44Q268.80 28.22 268.80 27.12ZM290.77 27.81Q292.29 28.15 293.80 28.34Q295.31 28.54 296.85 28.54Q298.46 28.54 299.84 28.23Q301.22 27.93 302.23 27.21Q303.25 26.49 303.83 25.29Q304.42 24.10 304.42 22.31Q304.42 20.87 304.03 19.68Q303.64 18.48 302.87 17.63Q302.10 16.77 300.98 16.30Q299.85 15.82 298.36 15.82Q296.97 15.82 295.86 16.33Q294.75 16.85 293.91 17.71Q293.07 18.58 292.47 19.73Q291.87 20.87 291.48 22.12Q291.09 23.36 290.92 24.63Q290.75 25.90 290.75 27.03Q290.75 27.22 290.75 27.42Q290.75 27.61 290.77 27.81M311.11 22.24Q311.11 23.97 310.55 25.33Q309.99 26.68 309.02 27.71Q308.06 28.74 306.79 29.44Q305.52 30.15 304.08 30.60Q302.64 31.05 301.11 31.25Q299.58 31.45 298.14 31.45Q296.31 31.45 294.53 31.19Q292.75 30.93 291.02 30.37Q291.28 31.98 291.87 33.44Q292.46 34.89 293.43 35.97Q294.41 37.06 295.84 37.70Q297.27 38.33 299.22 38.33Q300.51 38.33 301.68 37.94Q302.86 37.55 303.83 36.84Q304.81 36.13 305.55 35.16Q306.30 34.18 306.76 32.98L310.33 34.30Q309.52 36.23 308.12 37.63Q306.71 39.04 304.94 39.95Q303.17 40.87 301.18 41.31Q299.19 41.75 297.24 41.75Q294.02 41.75 291.28 40.66Q288.55 39.58 286.57 37.62Q284.59 35.67 283.47 32.96Q282.35 30.25 282.35 27.03Q282.35 23.80 283.47 21.09Q284.59 18.38 286.57 16.43Q288.55 14.48 291.28 13.39Q294.02 12.30 297.24 12.30Q298.80 12.30 300.44 12.52Q302.08 12.74 303.61 13.22Q305.15 13.70 306.52 14.45Q307.89 15.21 308.90 16.32Q309.91 17.43 310.51 18.90Q311.11 20.36 311.11 22.24Z"/></g></g></svg>